<svg width="46" height="46" viewBox="0 0 46 46" fill="none" xmlns="http://www.w3.org/2000/svg">
<g clip-path="url(#clip0_23_33)">
<path fill-rule="evenodd" clip-rule="evenodd" d="M21.2106 42.9809C18.987 44.8576 16.1943 45.9755 13.1621 45.9755C5.89225 45.9755 0 39.5539 0 31.6309C0 26.1353 2.83757 21.362 7.00033 18.9549C7.73405 21.7944 9.12663 24.3361 10.9871 26.3638C12.7241 28.2569 14.8729 29.7093 17.2725 30.5416C17.25 30.9087 17.2388 31.28 17.2388 31.6553C17.2425 36.0044 18.7437 39.9741 21.2106 42.9809Z" fill="#E76E82"/>
<path fill-rule="evenodd" clip-rule="evenodd" d="M46 31.6553C46 39.5784 40.1077 46 32.8379 46C25.568 46 19.6758 39.5743 19.6758 31.6553C19.6758 31.4881 19.6795 31.3208 19.6833 31.1535C20.4432 31.2759 21.2218 31.3412 22.0155 31.3412C26.3205 31.3412 30.2212 29.44 33.0438 26.3638C35.084 24.1403 36.5627 21.3008 37.2253 18.1267C42.3389 20.0972 46 25.4091 46 31.6553Z" fill="#EB97EC"/>
<path fill-rule="evenodd" clip-rule="evenodd" d="M35.1776 14.3447C35.1776 22.2677 29.2853 28.6893 22.0155 28.6893C14.7456 28.6893 8.85336 22.2677 8.85336 14.3447C8.85336 6.42164 14.7456 0 22.0155 0C29.2853 0 35.1776 6.42164 35.1776 14.3447Z" fill="#6C77CB"/>
</g>
<defs>
<clipPath id="clip0_23_33">
<rect width="46" height="46" fill="white"/>
</clipPath>
</defs>
</svg>
