<svg width="46" height="46" viewBox="0 0 46 46" fill="none" xmlns="http://www.w3.org/2000/svg">
<g clip-path="url(#clip0_23_28)">
<path d="M1.94413 26.4749L4.95881 26.4936C5.40961 28.8134 6.30181 31.0673 7.65419 33.1147L5.51291 35.2372C4.74281 35.9979 4.74281 37.2282 5.49413 37.9983L7.80445 40.3368C8.56517 41.1069 9.79546 41.1069 10.5656 40.3556L12.7068 38.2331C14.7354 39.6042 16.98 40.534 19.2997 41.0036L19.2809 44.0183C19.2715 45.0983 20.145 45.9717 21.225 45.9811L24.512 45.9999C25.592 46.0093 26.4655 45.1359 26.4749 44.0558L26.4936 41.0412C28.8134 40.5904 31.0673 39.6982 33.1147 38.3458L35.2372 40.4871C35.9979 41.2572 37.2282 41.2572 37.9983 40.5058L40.3368 38.1955C41.1069 37.4348 41.1069 36.2045 40.3556 35.4344L38.2331 33.2931C39.6042 31.2645 40.534 29.02 41.0036 26.7003L44.0183 26.719C45.0983 26.7284 45.9717 25.855 45.9811 24.775L45.9999 21.4879C46.0093 20.4079 45.1359 19.5345 44.0558 19.5251L41.0411 19.5063C40.5904 17.1866 39.6982 14.9326 38.3458 12.8853L40.487 10.7628C41.2572 10.0021 41.2572 8.77178 40.5058 8.00168L38.1955 5.66318C37.4348 4.89307 36.2045 4.89307 35.4344 5.6444L33.2931 7.76689C31.2645 6.39572 29.02 5.46596 26.7002 4.99638L26.719 1.98169C26.7284 0.901664 25.855 0.0282497 24.775 0.0188581L21.4879 7.50347e-05C20.4079 -0.00931652 19.5345 0.864098 19.5251 1.94413L19.4969 4.95881C17.1678 5.40961 14.9139 6.30181 12.8759 7.65419L10.7534 5.51292C9.99268 4.74281 8.76239 4.74281 7.99228 5.49413L5.66318 7.80445C4.89307 8.56517 4.89307 9.79546 5.6444 10.5656L7.76689 12.7068C6.39572 14.7354 5.46596 16.98 4.99638 19.2997L1.98169 19.2809C0.901664 19.2715 0.0282497 20.145 0.0188581 21.225L7.50347e-05 24.512C-0.00931652 25.5827 0.864098 26.4655 1.94413 26.4749ZM16.8391 16.7734C20.2764 13.3736 25.8081 13.4018 29.2078 16.8391C32.6075 20.2764 32.5794 25.8081 29.1421 29.2078C25.7047 32.6075 20.1731 32.5794 16.7734 29.1421C13.3736 25.7047 13.4018 20.1731 16.8391 16.7734Z" fill="#919EFD"/>
</g>
<defs>
<clipPath id="clip0_23_28">
<rect width="46" height="46" fill="white"/>
</clipPath>
</defs>
</svg>
